<?xml version="1.0" standalone="no"?>
<!DOCTYPE svg PUBLIC "-//W3C//DTD SVG 20010904//EN"
 "http://www.w3.org/TR/2001/REC-SVG-20010904/DTD/svg10.dtd">
<svg version="1.0" xmlns="http://www.w3.org/2000/svg"
 width="132.000000pt" height="132.000000pt" viewBox="0 0 132.000000 132.000000"
 preserveAspectRatio="xMidYMid meet">
<metadata>
Created by potrace 1.11, written by Peter Selinger 2001-2013
</metadata>
<g transform="translate(0.000000,132.000000) scale(0.100000,-0.100000)"
fill="#000000" stroke="none">
<path d="M0 660 l0 -660 660 0 660 0 0 660 0 660 -660 0 -660 0 0 -660z m796
590 c32 -6 68 -15 79 -20 11 -5 49 -22 85 -38 137 -61 225 -165 311 -367 29
-67 37 -187 18 -277 -10 -49 -51 -144 -98 -226 -68 -119 -275 -252 -391 -252
-16 0 -32 -4 -35 -10 -8 -12 -162 -13 -169 -1 -3 4 -25 11 -49 14 -51 7 -151
43 -170 60 -6 7 -25 21 -42 31 -115 74 -193 178 -242 326 -24 73 -24 253 -1
325 44 137 96 216 193 295 59 48 147 100 195 115 3 1 12 5 20 8 55 25 201 33
296 17z"/>
<path d="M620 803 c-39 -14 -52 -75 -26 -122 12 -23 12 -27 -9 -43 -47 -37
-40 -123 11 -147 34 -15 60 -14 101 6 33 15 37 15 63 0 15 -10 31 -17 34 -17
14 0 4 24 -18 41 -22 18 -23 21 -10 56 17 49 17 73 0 73 -8 0 -16 -16 -20 -40
-3 -22 -10 -40 -15 -40 -5 0 -23 18 -40 39 l-31 39 35 35 c40 40 45 77 15 107
-19 19 -58 25 -90 13z m71 -39 c11 -13 11 -20 -1 -41 -24 -41 -48 -52 -66 -29
-17 24 -18 73 -1 79 25 11 55 7 68 -9z m-51 -143 c0 -5 15 -26 34 -46 30 -31
32 -37 19 -50 -23 -23 -79 -19 -97 7 -9 12 -16 29 -16 38 0 22 29 60 46 60 8
0 14 -4 14 -9z"/>
<path d="M330 635 l0 -157 64 4 c80 5 106 24 106 80 0 25 -7 45 -21 59 -16 16
-18 23 -9 34 7 8 12 30 13 50 1 52 -28 77 -97 83 l-56 4 0 -157z m108 113 c7
-7 12 -26 12 -43 0 -40 -16 -55 -57 -55 -33 0 -33 0 -33 48 0 27 3 52 7 55 11
11 58 8 71 -5z m16 -144 c18 -18 20 -47 6 -75 -8 -14 -21 -19 -55 -19 l-45 0
0 55 0 55 39 0 c23 0 46 -7 55 -16z"/>
<path d="M867 783 c-4 -3 -7 -73 -7 -155 0 -125 2 -148 15 -148 12 0 15 15 15
75 0 41 4 75 9 75 4 0 30 -32 56 -71 44 -65 69 -89 81 -77 2 3 -20 41 -50 85
l-55 80 40 48 c48 58 63 84 54 93 -6 7 -19 -6 -97 -99 l-37 -44 0 73 c-1 66
-7 83 -24 65z"/>
</g>
</svg>
